G75*
G70*
%OFA0B0*%
%FSLAX24Y24*%
%IPPOS*%
%LPD*%
%AMOC8*
5,1,8,0,0,1.08239X$1,22.5*
%
%ADD10C,0.0000*%
D10*
X002267Y003074D02*
X009233Y003074D01*
X009271Y003076D01*
X009309Y003081D01*
X009347Y003090D01*
X009383Y003102D01*
X009418Y003118D01*
X009451Y003136D01*
X009483Y003158D01*
X009513Y003182D01*
X009540Y003209D01*
X009564Y003239D01*
X009586Y003271D01*
X009604Y003304D01*
X009620Y003339D01*
X009632Y003375D01*
X009641Y003413D01*
X009646Y003451D01*
X009648Y003489D01*
X009649Y003489D02*
X009649Y007163D01*
X009647Y007202D01*
X009642Y007240D01*
X009633Y007278D01*
X009621Y007314D01*
X009605Y007350D01*
X009586Y007384D01*
X009564Y007416D01*
X009540Y007445D01*
X009512Y007473D01*
X009483Y007497D01*
X009451Y007519D01*
X009417Y007538D01*
X009381Y007554D01*
X009345Y007566D01*
X009307Y007575D01*
X009269Y007580D01*
X009230Y007582D01*
X003814Y007582D01*
X003776Y007579D01*
X003738Y007573D01*
X003701Y007563D01*
X003665Y007550D01*
X003630Y007534D01*
X003597Y007514D01*
X003566Y007492D01*
X003537Y007467D01*
X003510Y007439D01*
X003486Y007409D01*
X003465Y007377D01*
X003447Y007343D01*
X003433Y007307D01*
X003421Y007270D01*
X003413Y007233D01*
X003409Y007195D01*
X003408Y007156D01*
X003408Y006095D01*
X003409Y006095D02*
X003407Y006059D01*
X003401Y006023D01*
X003392Y005989D01*
X003379Y005955D01*
X003363Y005923D01*
X003343Y005893D01*
X003321Y005865D01*
X003295Y005839D01*
X003267Y005817D01*
X003237Y005797D01*
X003205Y005781D01*
X003171Y005768D01*
X003137Y005759D01*
X003101Y005753D01*
X003065Y005751D01*
X002257Y005751D01*
X002220Y005749D01*
X002183Y005744D01*
X002146Y005736D01*
X002111Y005724D01*
X002077Y005709D01*
X002044Y005690D01*
X002014Y005669D01*
X001985Y005646D01*
X001958Y005619D01*
X001935Y005590D01*
X001914Y005560D01*
X001895Y005527D01*
X001880Y005493D01*
X001868Y005458D01*
X001860Y005421D01*
X001855Y005384D01*
X001853Y005347D01*
X001853Y003488D01*
X001855Y003450D01*
X001860Y003412D01*
X001869Y003375D01*
X001881Y003338D01*
X001896Y003303D01*
X001915Y003270D01*
X001937Y003239D01*
X001961Y003209D01*
X001988Y003182D01*
X002018Y003158D01*
X002049Y003136D01*
X002082Y003117D01*
X002117Y003102D01*
X002154Y003090D01*
X002191Y003081D01*
X002229Y003076D01*
X002267Y003074D01*
M02*
