G75*
G70*
%OFA0B0*%
%FSLAX24Y24*%
%IPPOS*%
%LPD*%
%AMOC8*
5,1,8,0,0,1.08239X$1,22.5*
%
%ADD10C,0.0000*%
%ADD11R,0.0394X0.0433*%
%ADD12R,0.0425X0.0413*%
%ADD13R,0.0118X0.0236*%
%ADD14R,0.1024X0.0591*%
%ADD15R,0.0394X0.0394*%
%ADD16R,0.0591X0.0433*%
%ADD17R,0.0433X0.0394*%
%ADD18R,0.0413X0.0425*%
%ADD19R,0.0250X0.0500*%
%ADD20OC8,0.0740*%
%ADD21C,0.0238*%
%ADD22C,0.0120*%
%ADD23C,0.0080*%
D10*
X002267Y003074D02*
X009233Y003074D01*
X009271Y003076D01*
X009309Y003081D01*
X009347Y003090D01*
X009383Y003102D01*
X009418Y003118D01*
X009451Y003136D01*
X009483Y003158D01*
X009513Y003182D01*
X009540Y003209D01*
X009564Y003239D01*
X009586Y003271D01*
X009604Y003304D01*
X009620Y003339D01*
X009632Y003375D01*
X009641Y003413D01*
X009646Y003451D01*
X009648Y003489D01*
X009649Y003489D02*
X009649Y007163D01*
X009647Y007202D01*
X009642Y007240D01*
X009633Y007278D01*
X009621Y007314D01*
X009605Y007350D01*
X009586Y007384D01*
X009564Y007416D01*
X009540Y007445D01*
X009512Y007473D01*
X009483Y007497D01*
X009451Y007519D01*
X009417Y007538D01*
X009381Y007554D01*
X009345Y007566D01*
X009307Y007575D01*
X009269Y007580D01*
X009230Y007582D01*
X003814Y007582D01*
X003776Y007579D01*
X003738Y007573D01*
X003701Y007563D01*
X003665Y007550D01*
X003630Y007534D01*
X003597Y007514D01*
X003566Y007492D01*
X003537Y007467D01*
X003510Y007439D01*
X003486Y007409D01*
X003465Y007377D01*
X003447Y007343D01*
X003433Y007307D01*
X003421Y007270D01*
X003413Y007233D01*
X003409Y007195D01*
X003408Y007156D01*
X003408Y006095D01*
X003409Y006095D02*
X003407Y006059D01*
X003401Y006023D01*
X003392Y005989D01*
X003379Y005955D01*
X003363Y005923D01*
X003343Y005893D01*
X003321Y005865D01*
X003295Y005839D01*
X003267Y005817D01*
X003237Y005797D01*
X003205Y005781D01*
X003171Y005768D01*
X003137Y005759D01*
X003101Y005753D01*
X003065Y005751D01*
X002257Y005751D01*
X002220Y005749D01*
X002183Y005744D01*
X002146Y005736D01*
X002111Y005724D01*
X002077Y005709D01*
X002044Y005690D01*
X002014Y005669D01*
X001985Y005646D01*
X001958Y005619D01*
X001935Y005590D01*
X001914Y005560D01*
X001895Y005527D01*
X001880Y005493D01*
X001868Y005458D01*
X001860Y005421D01*
X001855Y005384D01*
X001853Y005347D01*
X001853Y003488D01*
X001855Y003450D01*
X001860Y003412D01*
X001869Y003375D01*
X001881Y003338D01*
X001896Y003303D01*
X001915Y003270D01*
X001937Y003239D01*
X001961Y003209D01*
X001988Y003182D01*
X002018Y003158D01*
X002049Y003136D01*
X002082Y003117D01*
X002117Y003102D01*
X002154Y003090D01*
X002191Y003081D01*
X002229Y003076D01*
X002267Y003074D01*
D11*
X004176Y004963D03*
X004845Y004963D03*
X005377Y004865D03*
X006046Y004865D03*
X006046Y003763D03*
X005377Y003763D03*
X005239Y007208D03*
X004570Y007208D03*
D12*
X004767Y006548D03*
X004767Y005859D03*
D13*
X005357Y005692D03*
X005554Y005692D03*
X005751Y005692D03*
X005948Y005692D03*
X006145Y005692D03*
X006145Y006676D03*
X005948Y006676D03*
X005751Y006676D03*
X005554Y006676D03*
X005357Y006676D03*
D14*
X005751Y006184D03*
D15*
X004274Y005731D03*
X004274Y006656D03*
D16*
X003841Y004255D03*
X003841Y003586D03*
X002463Y003586D03*
X002463Y004255D03*
D17*
X006755Y004117D03*
X006755Y004786D03*
X006932Y005593D03*
X006932Y006263D03*
D18*
X006056Y004314D03*
X005367Y004314D03*
D19*
X003605Y005062D03*
X003251Y005062D03*
D20*
X007849Y005318D03*
X008849Y005318D03*
X008849Y006318D03*
X007849Y006318D03*
X007849Y004318D03*
X008849Y004318D03*
D21*
X007208Y003389D03*
X006460Y003704D03*
X006755Y004924D03*
X006164Y005042D03*
X005790Y005357D03*
X005318Y005357D03*
X004767Y005672D03*
X005357Y006184D03*
X005751Y006184D03*
X006145Y006184D03*
X005633Y007188D03*
X004373Y007208D03*
X003763Y006656D03*
X004019Y006204D03*
D22*
X004383Y006548D02*
X004767Y006548D01*
X004757Y006538D01*
X004767Y006548D02*
X004836Y006676D01*
X005357Y006676D01*
X006145Y006184D02*
X006145Y005692D01*
X004767Y005672D02*
X004767Y005859D01*
X004402Y005859D01*
X004274Y005731D01*
X004383Y006548D02*
X004274Y006656D01*
D23*
X004078Y006656D01*
X003723Y006302D01*
X003723Y005731D01*
X003467Y005475D01*
X003113Y005475D01*
X003251Y005337D01*
X003251Y005062D01*
X003605Y005062D02*
X003684Y004963D01*
X004176Y004963D01*
X004570Y005357D01*
X005318Y005357D01*
X005554Y005141D02*
X005377Y004865D01*
X004944Y004865D01*
X004845Y004963D01*
X004530Y004609D02*
X004885Y004255D01*
X004885Y004038D01*
X005160Y003763D01*
X005377Y003763D01*
X005003Y003389D02*
X006460Y003389D01*
X006755Y003684D01*
X006755Y004117D01*
X006400Y003960D02*
X006204Y003763D01*
X006046Y003763D01*
X006400Y003763D01*
X006460Y003704D01*
X006400Y003960D02*
X006400Y006597D01*
X006322Y006676D01*
X006145Y006676D01*
X005948Y006676D02*
X005948Y006853D01*
X006026Y006932D01*
X006420Y006932D01*
X006578Y006774D01*
X006578Y005101D01*
X006755Y004924D01*
X006755Y004786D01*
X007306Y004774D02*
X007306Y003487D01*
X007208Y003389D01*
X007109Y003664D02*
X007109Y005416D01*
X006932Y005593D01*
X007365Y005830D02*
X006932Y006263D01*
X006932Y006696D01*
X006538Y007089D01*
X005928Y007089D01*
X005771Y006932D01*
X005593Y006932D01*
X005554Y006893D01*
X005554Y006676D01*
X005357Y006676D02*
X005357Y007050D01*
X005239Y007208D01*
X005456Y007424D01*
X008664Y007424D01*
X009373Y006715D01*
X009373Y005082D01*
X009117Y004826D01*
X008357Y004826D01*
X007849Y004318D01*
X007306Y004774D02*
X007849Y005318D01*
X007365Y005830D02*
X008337Y005830D01*
X008849Y005318D01*
X008849Y006318D02*
X008849Y006708D01*
X008310Y007247D01*
X005692Y007247D01*
X005633Y007188D01*
X005377Y007345D02*
X005239Y007208D01*
X004570Y007208D02*
X004373Y007208D01*
X003999Y007208D01*
X003763Y006971D01*
X003763Y006656D01*
X004019Y006204D02*
X005023Y006204D01*
X005101Y006125D01*
X005101Y005810D01*
X005219Y005692D01*
X005357Y005692D01*
X005554Y005692D02*
X005554Y005141D01*
X005367Y004954D02*
X005377Y004865D01*
X005367Y004954D02*
X005367Y004314D01*
X006056Y004314D02*
X006056Y004954D01*
X006046Y004865D01*
X006164Y005042D01*
X005790Y005357D02*
X005948Y005515D01*
X005948Y005692D01*
X004530Y004609D02*
X002818Y004609D01*
X002463Y004255D01*
X002112Y003920D02*
X002030Y004001D01*
X002030Y004589D01*
X002916Y005475D01*
X003113Y005475D01*
X003172Y004255D02*
X002837Y003920D01*
X002112Y003920D01*
X002463Y003586D02*
X002818Y003586D01*
X003152Y003920D01*
X004471Y003920D01*
X005003Y003389D01*
X004885Y003231D02*
X006676Y003231D01*
X007109Y003664D01*
X004885Y003231D02*
X004530Y003586D01*
X003841Y003586D01*
X003841Y004255D02*
X003172Y004255D01*
M02*
